HIERARCHY
ROOT pelvis
{
  OFFSET 0 100 0
  CHANNELS 6 Xposition Yposition Zposition Zrotation Xrotation Yrotation
  JOINT pelvis_right_femur
  {
    OFFSET -10.78128 -3.44521 -0.5502486
    CHANNELS 3 Zrotation Xrotation Yrotation
    JOINT right_femur_tibia
    {
      OFFSET -0.8047443 -44.0398 -0.1307829
      CHANNELS 3 Zrotation Xrotation Yrotation
      JOINT right_tibia_foot
      {
        OFFSET 3.006224 -47.83518 -5
        CHANNELS 3 Zrotation Xrotation Yrotation
        End Site
        {
          OFFSET 0 -5 15
        }
      }
    }
  }
  JOINT pelvis_left_femur
  {
    OFFSET 10.78128 -3.44521 -0.5502486
    CHANNELS 3 Zrotation Xrotation Yrotation
    JOINT left_femur_tibia
    {
      OFFSET 0.8047443 -44.0398 -0.1307829
      CHANNELS 3 Zrotation Xrotation Yrotation
      JOINT left_tibia_foot
      {
        OFFSET -4.370144 -48.10324 -4.275266
        CHANNELS 3 Zrotation Xrotation Yrotation
        End Site
        {
          OFFSET 0 -5 15
        }
      }
    }
  }
  JOINT pelvis_spine1
  {
    OFFSET 0 6.468898 -3.129235
    CHANNELS 3 Zrotation Xrotation Yrotation
    JOINT spine1
    {
      OFFSET 0 23.15396 4.99043
      CHANNELS 3 Zrotation Xrotation Yrotation
      JOINT spine2
      {
        OFFSET 0 20.79997 -5.064912
        CHANNELS 3 Zrotation Xrotation Yrotation
        JOINT neck
        {
          OFFSET 0 14.38658 9.616178
          CHANNELS 3 Zrotation Xrotation Yrotation
          End Site
          {
            OFFSET 0 20 0
          }
        }
      }
      JOINT right_manubrium
      {
        OFFSET -5.722621 16.35077 3.967754
        CHANNELS 3 Zrotation Xrotation Yrotation
        JOINT right_clavicle
        {
          OFFSET -13.16364 1.694482 -4.693211
          CHANNELS 3 Zrotation Xrotation Yrotation
          JOINT right_humerus
          {
            OFFSET -28.5034 -0.3100689 -2.792744
            CHANNELS 3 Zrotation Xrotation Yrotation
            JOINT right_radius
            {
              OFFSET -25.15693 0.02248979 -1.271978
              CHANNELS 3 Zrotation Xrotation Yrotation
              End Site
              {
                OFFSET -15 0 0
              }
            }
          }
        }
      }
      JOINT left_manubrium
      {
        OFFSET 5.722621 16.35077 3.967754
        CHANNELS 3 Zrotation Xrotation Yrotation
        JOINT left_clavicle
        {
          OFFSET 13.16364 1.694482 -4.693211
          CHANNELS 3 Zrotation Xrotation Yrotation
          JOINT left_humerus
          {
            OFFSET 29.39168 -1.063119 -2.237045
            CHANNELS 3 Zrotation Xrotation Yrotation
            JOINT left_radius
            {
              OFFSET 24.59957 -0.9528479 0.9047498
              CHANNELS 3 Zrotation Xrotation Yrotation
              End Site
              {
                OFFSET 15 -0 -0
              }
            }
          }
        }
      }
    }
  }
}
MOTION
Frames: 19
Frame Time: 0.0416666666667
35.91691 101.0956 256.0821 1.268167 -5.941707 1.659928 3.022634 16.89409 6.030653 -0 22.12648 -0 3.195337 -14.3155 0.3444174 0.6729522 -27.40581 -2.464612 -0 22.2058 -0 -9.655288 -8.596582 20.07553 0.5400265 1.818358 9.80061 -2.326213 10.16981 -2.088264 1.384466 18.06333 6.599619 2.015327 -22.13623 7.948975 0.01381224 -22.97059 11.74511 80.03375 19.15234 -3.061757 -0 0 27.44196 -25.06815 11.36631 14.18291 3.22673 -15.95759 -2.425226 -90.38291 20.55688 24.37215 0 0 -15.27992 -3.604853 5.018368 19.11263
37.26501 100.5534 263.6186 1.916681 -6.10856 1.860433 1.837787 17.91866 6.13156 -0 28.40659 -0 3.415749 -11.82471 0.7846686 -1.534215 -25.7943 -4.324158 -0 22.30297 -0 -9.289705 -8.409169 19.54232 -0.1734156 0.8900779 9.817245 -2.433911 10.15237 -2.114392 1.767445 18.16456 6.429917 2.085782 -21.88598 8.150169 -0.1573609 -22.31266 11.09379 80.75426 18.51394 -3.608106 -0 0 27.81223 -25.32663 11.21844 14.35779 3.222763 -15.05325 -2.278128 -90.58286 20.79173 24.91666 0 0 -14.23001 -3.877497 4.732917 19.76352
38.33144 100.7833 271.0567 2.559223 -5.956093 2.390853 0.8522716 17.4961 6.107971 -0 36.62571 -0 3.236545 -8.908754 0.8680948 -3.842681 -21.81763 -6.071322 -0 24.09293 -0 -8.709431 -9.170086 19.06797 -1.252779 -0.02715638 9.668033 -2.552234 10.04879 -2.111166 2.023952 18.23364 6.284298 2.098465 -21.70748 8.271682 0.2261268 -21.27726 10.7815 81.87425 18.28398 -4.76111 -0 0 26.7799 -25.20917 11.27399 14.14199 3.316552 -14.62131 -2.300422 -90.2037 21.14411 24.68781 0 0 -13.66216 -3.991944 4.501926 20.10874
39.78204 101.7096 278.5713 3.159513 -7.423039 3.488866 0.4697984 13.9462 5.787078 -0 45.65862 -0 2.303464 -8.976486 -0.07362325 -5.421069 -16.56794 -7.239822 -0 25.55552 -0 -7.940004 -10.71244 18.57801 -1.706889 -0.06794746 8.765818 -2.508407 10.39721 -2.451921 2.072955 18.81635 6.27916 2.005126 -21.24453 8.446515 1.094962 -20.75295 10.43285 82.73099 18.37509 -6.054751 -0 0 24.60765 -24.74472 11.52411 13.56334 2.936774 -14.51958 -2.324538 -89.55592 21.50039 23.88559 0 0 -13.37227 -3.967161 4.342645 20.12961
40.85826 102.9078 285.1085 3.128842 -8.716007 4.236487 -0.6408424 8.67353 5.165175 -0 52.24787 -0 1.563291 -10.04983 -2.458463 -5.864271 -11.05321 -7.74713 -0 25.53438 -0 -7.253236 -12.29725 18.17208 -1.66491 0.6120836 7.650234 -2.411817 10.76798 -2.746209 1.926421 19.44788 6.40614 1.788659 -20.56616 8.655983 1.962395 -20.1519 10.54741 83.74799 18.688 -7.471474 -0 0 22.12813 -23.97167 11.82095 12.7379 2.589537 -15.03201 -2.604667 -88.47639 21.94289 22.10562 0 0 -13.60753 -3.801676 4.245237 19.92781
41.93521 104.4545 291.2373 2.943855 -9.551987 4.966012 -0.688192 2.605775 4.15282 -0 55.87541 -0 0.9395516 -10.57237 -4.197847 -5.88874 -5.328396 -7.862312 -0 23.93952 -0 -6.831499 -13.53847 17.66423 -1.475827 0.994033 6.250799 -2.147023 10.9674 -3.383495 1.781177 20.20858 6.586324 1.576681 -19.70478 8.945544 2.435733 -19.56725 10.47898 84.83843 19.01531 -9.003317 -0 0 19.98566 -23.11087 12.05867 11.95564 2.436614 -15.5834 -2.961975 -87.42993 22.34854 19.8334 0 0 -14.28677 -3.579086 4.184834 19.55554
42.89221 105.6807 296.9902 2.67728 -9.51928 5.902408 -0.7728021 -3.655625 2.938394 -0 54.15616 -0 1.198708 -10.3597 -5.549996 -5.732563 0.2693789 -7.806923 -0 21.00151 -0 -6.582954 -14.66326 16.99667 -1.431436 0.8826602 4.800816 -1.655232 10.8206 -4.540401 1.701892 20.90197 6.760571 1.40052 -18.73896 9.275419 2.314194 -18.87924 10.03067 85.90282 19.19499 -10.71688 -0 0 18.34384 -22.28588 12.14981 11.27235 2.659233 -16.17085 -3.454187 -86.41885 22.75372 17.11608 0 0 -15.37032 -3.367744 4.14259 19.04479
43.94812 106.1902 302.7107 2.701148 -8.788388 6.874693 -1.105 -8.95533 1.676013 -0 48.18838 -0 1.644473 -9.629233 -6.722841 -5.637274 4.912143 -7.95088 -0 17.89446 -0 -6.450646 -15.84633 16.07534 -1.552025 0.3285332 3.705409 -1.1329 10.49898 -5.811886 1.743746 21.32778 6.854373 1.274292 -17.842 9.585256 1.656067 -17.99153 9.2983 86.71984 19.21645 -12.66554 -0 0 16.93212 -21.49224 12.08422 10.62288 3.098183 -16.68717 -3.892979 -85.49226 23.13042 14.2424 0 0 -16.78474 -3.153491 4.154573 18.3008
44.85512 106.0779 307.756 2.711144 -8.181398 7.959957 -2.1626 -14.59373 0.9297871 -0 39.44494 -0 1.654346 -8.999048 -6.877073 -5.469167 8.73293 -7.973612 -0 15.45887 -0 -6.380478 -17.1485 15.13197 -1.972266 0.5400609 2.859315 -0.4448426 9.965094 -7.11442 2.101276 21.59124 6.665526 1.293831 -17.12927 9.790771 0.9804089 -17.34292 8.597313 87.12002 19.17957 -14.39664 -0 0 15.48386 -20.68842 11.91408 9.872785 3.681578 -17.66781 -4.481798 -84.15411 23.54268 10.87199 0 0 -18.45184 -2.879556 4.206343 17.40573
45.64903 105.2725 313.3098 3.117438 -7.25592 9.084815 -2.856326 -18.4515 -0.099586 -0 31.34596 -0 1.395249 -8.409048 -7.179666 -5.577355 12.17487 -7.789905 -0 13.92343 -0 -6.353534 -18.62787 14.22326 -2.433366 0.3218621 2.390525 0.03090343 9.333669 -8.06261 2.315105 21.62623 6.408661 1.222302 -16.68356 9.788002 0.5606737 -16.26575 7.816949 87.61733 19.07584 -16.47568 -0 0 13.52009 -19.72277 11.71266 8.818035 4.227507 -18.72676 -4.542098 -82.67083 23.8286 7.692606 0 0 -20.20247 -2.46235 4.348334 16.41585
46.37636 103.8708 319.0097 3.480246 -6.675839 9.969393 -3.790862 -21.97625 -0.7198172 -0 22.6918 -0 0.88856 -8.860938 -7.040628 -5.643541 15.38694 -7.602076 -0 13.65281 -0 -6.403273 -20.07579 13.44481 -2.758824 0.2694028 2.259751 0.3112173 8.768487 -8.461534 2.553541 21.64588 6.062884 1.170757 -16.3837 9.686349 0.2360235 -15.2864 7.305585 88.00253 19.02052 -18.24149 -0 0 11.43925 -18.72309 11.55957 7.668209 4.759811 -19.99354 -4.259055 -81.10786 23.96573 4.704173 0 0 -21.89106 -1.871061 4.569583 15.37131
46.88433 102.5559 324.9836 3.538355 -6.420652 10.52151 -3.915577 -24.58471 -1.299631 -0 16.28767 -0 0.3551427 -9.379037 -7.566866 -5.31127 18.24081 -7.418346 -0 14.79898 -0 -6.716625 -20.86389 12.92257 -2.815027 0.5307905 2.308324 0.5539996 8.336289 -8.454854 2.70801 21.58069 5.723789 1.082842 -16.31989 9.515465 0.1462651 -14.56483 7.190971 88.3117 19.03818 -19.50451 -0 0 9.389972 -17.69545 11.47894 6.487505 5.257441 -21.10383 -3.887214 -79.70007 23.92462 2.307675 0 0 -23.28971 -1.130394 4.796712 14.34005
47.31703 101.5099 331.5626 3.548792 -6.342479 11.06432 -2.683164 -25.43347 -2.104482 -0 14.52195 -0 0.4498838 -9.912928 -9.377388 -4.643541 20.66632 -7.190367 -0 17.51769 -0 -7.425832 -20.39817 12.6813 -2.664199 0.5999814 2.110033 0.875992 8.513018 -8.525587 2.593668 21.60326 5.519258 0.8750953 -16.33202 9.287023 0.3792238 -13.68389 7.026614 88.80655 19.05333 -20.66341 -0 0 7.302862 -16.4864 11.48758 5.201629 5.536426 -21.55214 -3.457579 -79.03402 23.87456 1.103285 0 0 -23.97746 -0.4413376 4.950786 13.49853
47.76059 100.8894 338.5526 3.058026 -6.561295 11.54958 -0.3443172 -23.89912 -1.344852 -0 16.63517 -0 0.6603539 -9.998874 -10.06638 -3.495524 22.02366 -7.326617 -0 22.56817 -0 -8.485723 -18.24878 13.0487 -2.022142 -0.06897746 1.782715 0.9238973 8.340012 -8.412337 2.56503 21.81124 5.36705 0.7298973 -16.41877 9.199293 0.3749247 -13.21401 6.873266 89.03456 19.11998 -21.07255 -0 0 6.022389 -15.43922 11.51374 4.211134 5.528126 -21.64104 -2.795762 -78.99492 23.88339 1.001421 0 0 -23.80239 0.1426392 5.0628 12.89938
48.01434 100.8808 346.0828 2.327059 -7.477106 12.15191 1.550613 -20.73619 0.0890341 -0 19.80334 -0 0.5267618 -10.89065 -10.5037 -2.09279 22.18674 -7.459827 -0 30.48012 -0 -9.759589 -14.42265 14.38246 -1.101887 -0.6689205 1.553651 1.143495 8.638062 -8.373454 2.493913 22.3229 5.198926 0.5987168 -16.3842 9.048532 0.2747881 -13.102 6.721609 89.0195 19.19782 -20.81698 -0 0 5.432377 -14.45719 11.52861 3.40986 5.397777 -20.85936 -2.363691 -79.67579 24.05334 1.703096 0 0 -22.82467 0.4816218 5.10294 12.62107
48.44788 101.5811 353.6246 1.693853 -9.101589 12.01769 3.457879 -15.98106 1.359014 -0 22.42645 -0 0.02957473 -12.65975 -10.51635 -1.660387 20.12264 -6.705939 -0 40.59785 -0 -10.74129 -10.53373 16.82204 -0.1627453 -0.7160338 1.603133 1.407968 9.341331 -8.249943 2.456353 22.86479 4.975939 0.5000917 -16.56732 8.85084 0.338116 -12.94298 6.732497 88.88858 19.17429 -20.26366 -0 0 5.114575 -13.88268 11.39742 2.966126 4.934378 -19.92003 -2.094912 -80.93292 24.30152 3.135946 0 0 -21.08407 0.5817237 5.079089 12.63743
48.88657 102.5447 360.8317 1.324693 -11.12479 11.45487 4.770562 -10.53843 2.679513 -0 23.77007 -0 -0.5537386 -14.64837 -9.970725 -1.299591 16.38598 -6.710247 -0 49.80798 -0 -10.89515 -8.093926 19.26267 0.544679 -0.2407365 2.134617 1.642931 10.01198 -7.849528 2.69068 23.24087 4.481903 0.5588012 -17.04451 8.513145 0.5927405 -13.14905 7.247154 88.39449 19.15698 -19.00748 -0 0 5.054378 -13.71745 11.14459 2.829279 4.183541 -19.06406 -2.077313 -82.57661 24.56426 4.907479 0 0 -18.8973 0.4628618 5.0009 12.86261
49.30626 103.9596 367.1523 1.69258 -12.36249 10.68225 5.09355 -4.554429 3.090432 -0 22.84138 -0 -0.8033281 -16.16644 -9.249318 -1.404741 10.80562 -6.678136 -0 56.11912 -0 -10.05448 -7.222246 21.10784 0.5266327 0.6500931 3.333438 1.564828 10.44769 -6.923584 2.921116 23.71284 4.020826 0.6533385 -17.5041 8.180007 1.01742 -13.73624 8.067374 87.76125 19.06312 -17.08878 -0 0 5.30254 -13.90247 10.78591 2.950582 3.495782 -18.64118 -2.07576 -84.29286 24.70007 6.675399 0 0 -16.77218 0.307254 4.886164 13.1219
49.83713 105.551 373.1522 2.378743 -12.89656 9.699975 4.524812 1.46216 2.96212 -0 19.81631 -0 -0.8476611 -17.0991 -8.295744 -2.276734 4.369466 -6.07591 -0 58.55025 -0 -8.956802 -6.897461 22.08956 0.1502342 1.341376 4.654117 1.178428 10.64316 -5.609242 3.146507 24.21669 3.552311 0.7574587 -17.84405 7.818686 1.2991 -14.37134 8.897632 87.30172 18.85897 -14.94356 -0 0 5.716519 -14.30788 10.37411 3.255776 3.201171 -18.23933 -1.761793 -86.01099 24.60401 8.706083 0 0 -14.82705 0.2430409 4.717074 13.31346
